%TF.GenerationSoftware,KiCad,Pcbnew,10.0.7*%
%TF.CreationDate,2026-10-10T12:25:37+01:00*%
%TF.ProjectId,AeroBot,4165726f-426f-4742-9e6b-696361645f70,rev?*%
%TF.SameCoordinates,Original*%
%TF.FileFunction,Copper,L1,Top*%
%TF.FilePolarity,Positive*%
%FSLAX46Y46*%
G04 Gerber Fmt 4.6, Leading zero omitted, Abs format (unit mm)*
G04 Created by KiCad (PCBNEW 10.0.7) date 2026-10-10 12:25:37*
%MOMM*%
%LPD*%
G01*
G04 APERTURE LIST*
G04 Aperture macros list*
%AMRoundRect*
0 Rectangle with rounded corners*
0 $1 Rounding radius*
0 $2 $3 $4 $5 $6 $7 $8 $9 X,Y pos of 4 corners*
0 Add a 4 corners polygon primitive as box body*
4,1,4,$2,$3,$4,$5,$6,$7,$8,$9,$2,$3,0*
0 Add four circle primitives for the rounded corners*
1,1,$1+$1,$2,$3*
1,1,$1+$1,$4,$5*
1,1,$1+$1,$6,$7*
1,1,$1+$1,$8,$9*
0 Add four rect primitives between the rounded corners*
20,1,$1+$1,$2,$3,$4,$5,0*
20,1,$1+$1,$4,$5,$6,$7,0*
20,1,$1+$1,$6,$7,$8,$9,0*
20,1,$1+$1,$8,$9,$2,$3,0*%
G04 Aperture macros list end*
%TA.AperFunction,ComponentPad*%
%ADD10R,1.700000X1.700000*%
%TD*%
%TA.AperFunction,ComponentPad*%
%ADD11C,1.700000*%
%TD*%
%TA.AperFunction,ComponentPad*%
%ADD12C,2.000000*%
%TD*%
%TA.AperFunction,SMDPad,CuDef*%
%ADD13RoundRect,0.500000X-0.875000X-0.500000X0.875000X-0.500000X0.875000X0.500000X-0.875000X0.500000X0*%
%TD*%
%TA.AperFunction,SMDPad,CuDef*%
%ADD14C,1.700000*%
%TD*%
%TA.AperFunction,SMDPad,CuDef*%
%ADD15RoundRect,0.275000X0.975000X0.275000X-0.975000X0.275000X-0.975000X-0.275000X0.975000X-0.275000X0*%
%TD*%
%TA.AperFunction,ViaPad*%
%ADD16C,0.600000*%
%TD*%
%TA.AperFunction,Conductor*%
%ADD17C,0.200000*%
%TD*%
%TA.AperFunction,Conductor*%
%ADD18C,0.500000*%
%TD*%
G04 APERTURE END LIST*
D10*
%TO.P,J3,1,Pin_1_1*%
%TO.N,+3.3V*%
X158380000Y-81000000D03*
D11*
%TO.P,J3,2,Pin_2_2*%
%TO.N,GND*%
X160920000Y-81000000D03*
%TO.P,J3,3,Pin_3_3*%
%TO.N,/SCL*%
X163460000Y-81000000D03*
%TO.P,J3,4,Pin_4_4*%
%TO.N,/SDA*%
X166000000Y-81000000D03*
%TD*%
D12*
%TO.P,SW4,1,1_1*%
%TO.N,/GPIO5*%
X176500000Y-120500000D03*
X183000000Y-120500000D03*
%TO.P,SW4,2,2_2*%
%TO.N,GND*%
X176500000Y-125000000D03*
X183000000Y-125000000D03*
%TD*%
D13*
%TO.P,U1,1,D0_1*%
%TO.N,/MD DATA*%
X190004500Y-85060250D03*
%TO.P,U1,2,D1_2*%
%TO.N,/GPIO3*%
X190004500Y-87600250D03*
%TO.P,U1,3,D2_3*%
%TO.N,/GPIO4*%
X190004500Y-90140250D03*
%TO.P,U1,4,D3_4*%
%TO.N,/SCL*%
X190004500Y-92680250D03*
%TO.P,U1,5,D4_5*%
%TO.N,/SDA*%
X190004500Y-95220250D03*
%TO.P,U1,6,D5_6*%
%TO.N,/GPIO5*%
X190004500Y-97760250D03*
%TO.P,U1,7,D6_7*%
%TO.N,/GPIO6*%
X190004500Y-100300250D03*
%TO.P,U1,8,D7_8*%
%TO.N,unconnected-(U1-D7-Pad8)*%
X206169500Y-100300250D03*
%TO.P,U1,9,D8_9*%
%TO.N,unconnected-(U1-D8-Pad9)*%
X206169500Y-97760250D03*
%TO.P,U1,10,D9/BOOT_10*%
%TO.N,unconnected-(U1-D9{slash}BOOT-Pad10)*%
X206169500Y-95220250D03*
%TO.P,U1,11,D10_11*%
%TO.N,unconnected-(U1-D10-Pad11)*%
X206169500Y-92680250D03*
%TO.P,U1,12,3V3_OUT_12*%
%TO.N,+3.3V*%
X206169500Y-90140250D03*
%TO.P,U1,13,GND_13*%
%TO.N,GND*%
X206169500Y-87600250D03*
%TO.P,U1,14,VBUS_14*%
%TO.N,+5V*%
X206169500Y-85060250D03*
D14*
%TO.P,U1,15,D3/MTDI_15*%
%TO.N,unconnected-(U1-D3{slash}MTDI-Pad15)*%
X196789500Y-84048250D03*
%TO.P,U1,16,D5/MTDO_16*%
%TO.N,unconnected-(U1-D5{slash}MTDO-Pad16)*%
X199329500Y-84048250D03*
%TO.P,U1,17,EN_17*%
%TO.N,unconnected-(U1-EN-Pad17)*%
X196789500Y-86588250D03*
%TO.P,U1,18,GND_18*%
%TO.N,GND*%
X199329500Y-86588250D03*
%TO.P,U1,19,D2/MTMS_19*%
%TO.N,unconnected-(U1-D2{slash}MTMS-Pad19)*%
X196789500Y-89128250D03*
%TO.P,U1,20,D4/MTCK_20*%
%TO.N,unconnected-(U1-D4{slash}MTCK-Pad20)*%
X199329500Y-89128250D03*
D15*
%TO.P,U1,21,VBAT_21*%
%TO.N,unconnected-(U1-VBAT-Pad21)*%
X193614500Y-92298250D03*
%TO.P,U1,22,GND_22*%
%TO.N,unconnected-(U1-GND-Pad22)*%
X193614500Y-90393250D03*
%TD*%
D12*
%TO.P,SW2,1,1_1*%
%TO.N,/GPIO3*%
X143500000Y-120000000D03*
X150000000Y-120000000D03*
%TO.P,SW2,2,2_2*%
%TO.N,GND*%
X143500000Y-124500000D03*
X150000000Y-124500000D03*
%TD*%
%TO.P,SW5,1,1_1*%
%TO.N,/GPIO6*%
X193500000Y-120750000D03*
X200000000Y-120750000D03*
%TO.P,SW5,2,2_2*%
%TO.N,GND*%
X193500000Y-125250000D03*
X200000000Y-125250000D03*
%TD*%
D10*
%TO.P,J6,1,Pin_1_1*%
%TO.N,+3.3V*%
X225000000Y-108300000D03*
D11*
%TO.P,J6,2,Pin_2_2*%
%TO.N,GND*%
X225000000Y-110840000D03*
%TO.P,J6,3,Pin_3_3*%
%TO.N,/SCL*%
X225000000Y-113380000D03*
%TO.P,J6,4,Pin_4_4*%
%TO.N,/SDA*%
X225000000Y-115920000D03*
%TO.P,J6,5,Pin_5_5*%
%TO.N,unconnected-(J6-Pin_5-Pad5)*%
X225000000Y-118460000D03*
%TO.P,J6,6,Pin_6_6*%
%TO.N,unconnected-(J6-Pin_6-Pad6)*%
X225000000Y-121000000D03*
%TO.P,J6,7,Pin_7_7*%
%TO.N,unconnected-(J6-Pin_7-Pad7)*%
X225000000Y-123540000D03*
%TO.P,J6,8,Pin_8_8*%
%TO.N,unconnected-(J6-Pin_8-Pad8)*%
X225000000Y-126080000D03*
%TD*%
D12*
%TO.P,SW3,1,1_1*%
%TO.N,/GPIO4*%
X159500000Y-120500000D03*
X166000000Y-120500000D03*
%TO.P,SW3,2,2_2*%
%TO.N,GND*%
X159500000Y-125000000D03*
X166000000Y-125000000D03*
%TD*%
D10*
%TO.P,J4,1,Pin_1_1*%
%TO.N,+3.3V*%
X217000000Y-76000000D03*
D11*
%TO.P,J4,2,Pin_2_2*%
%TO.N,GND*%
X219540000Y-76000000D03*
%TO.P,J4,3,Pin_3_3*%
%TO.N,unconnected-(J4-Pin_3-Pad3)*%
X222080000Y-76000000D03*
%TO.P,J4,4,Pin_4_4*%
%TO.N,/MD DATA*%
X224620000Y-76000000D03*
%TD*%
D16*
%TO.N,/SDA*%
X209000000Y-115000000D03*
X187000000Y-92000000D03*
X187000000Y-87000000D03*
X182000000Y-99000000D03*
%TO.N,GND*%
X217000000Y-88000000D03*
X191000000Y-74000000D03*
%TO.N,/SCL*%
X176000000Y-87000000D03*
X183000000Y-91000000D03*
%TO.N,+3.3V*%
X203000000Y-88000000D03*
%TD*%
%TO.N,/SDA*%
D17*
X187000000Y-95000000D02*
X189784250Y-95000000D01*
X187000000Y-95000000D02*
X186000000Y-95000000D01*
X187000000Y-92000000D02*
X187000000Y-95000000D01*
X186000000Y-95000000D02*
X182000000Y-99000000D01*
X189784250Y-95000000D02*
X190004500Y-95220250D01*
X187000000Y-74000000D02*
X187000000Y-87000000D01*
X225000000Y-115920000D02*
X209920000Y-115920000D01*
X209920000Y-115920000D02*
X209000000Y-115000000D01*
X166000000Y-81000000D02*
X166000000Y-74000000D01*
X166000000Y-74000000D02*
X187000000Y-74000000D01*
%TO.N,GND*%
D18*
X184250000Y-125250000D02*
X193500000Y-125250000D01*
X221250000Y-125250000D02*
X222000000Y-126000000D01*
X200000000Y-74000000D02*
X191000000Y-74000000D01*
X159500000Y-125000000D02*
X166000000Y-125000000D01*
X228000000Y-129000000D02*
X228000000Y-111000000D01*
X151500000Y-124500000D02*
X152000000Y-125000000D01*
X202000000Y-86588250D02*
X199329500Y-86588250D01*
X150000000Y-124500000D02*
X151500000Y-124500000D01*
X202000000Y-76000000D02*
X200000000Y-74000000D01*
X166000000Y-125000000D02*
X176500000Y-125000000D01*
X206169500Y-87600250D02*
X216600250Y-87600250D01*
X205157500Y-86588250D02*
X202000000Y-86588250D01*
X222000000Y-129000000D02*
X228000000Y-129000000D01*
X200000000Y-125250000D02*
X221250000Y-125250000D01*
X183000000Y-125000000D02*
X184000000Y-125000000D01*
X222000000Y-126000000D02*
X222000000Y-129000000D01*
X202000000Y-86588250D02*
X202000000Y-76000000D01*
X176500000Y-125000000D02*
X183000000Y-125000000D01*
X228000000Y-111000000D02*
X227840000Y-110840000D01*
X193500000Y-125250000D02*
X200000000Y-125250000D01*
X216600250Y-87600250D02*
X217000000Y-88000000D01*
X206169500Y-87600250D02*
X205157500Y-86588250D01*
X152000000Y-125000000D02*
X159500000Y-125000000D01*
X184000000Y-125000000D02*
X184250000Y-125250000D01*
X227840000Y-110840000D02*
X225000000Y-110840000D01*
X143500000Y-124500000D02*
X150000000Y-124500000D01*
%TO.N,/SCL*%
D17*
X213620000Y-102000000D02*
X225000000Y-113380000D01*
X163460000Y-83460000D02*
X163460000Y-81000000D01*
X164000000Y-87000000D02*
X164000000Y-84000000D01*
X164200250Y-87200250D02*
X164000000Y-87000000D01*
X176000000Y-87000000D02*
X174000000Y-85000000D01*
X174000000Y-87200250D02*
X164200250Y-87200250D01*
X190004500Y-92680250D02*
X191680250Y-92680250D01*
X174000000Y-85000000D02*
X174000000Y-87200250D01*
X191680250Y-92680250D02*
X195000000Y-96000000D01*
X195000000Y-96000000D02*
X203000000Y-96000000D01*
X204000000Y-101000000D02*
X205000000Y-102000000D01*
X205000000Y-102000000D02*
X213620000Y-102000000D01*
X188324250Y-91000000D02*
X183000000Y-91000000D01*
X204000000Y-95000000D02*
X204000000Y-101000000D01*
X190004500Y-92680250D02*
X188324250Y-91000000D01*
X164000000Y-84000000D02*
X163460000Y-83460000D01*
X203000000Y-96000000D02*
X204000000Y-95000000D01*
%TO.N,+3.3V*%
D18*
X224140250Y-90140250D02*
X206169500Y-90140250D01*
X205140250Y-90140250D02*
X206169500Y-90140250D01*
X217000000Y-83000000D02*
X217000000Y-76000000D01*
X225000000Y-91000000D02*
X224140250Y-90140250D01*
X225000000Y-108300000D02*
X225000000Y-91000000D01*
X224140250Y-90140250D02*
X217000000Y-83000000D01*
X203000000Y-88000000D02*
X205140250Y-90140250D01*
%TO.N,/MD DATA*%
D17*
X224620000Y-76000000D02*
X220620000Y-72000000D01*
X220620000Y-72000000D02*
X190000000Y-72000000D01*
X190000000Y-72000000D02*
X190004500Y-72004500D01*
X190004500Y-72004500D02*
X190004500Y-85060250D01*
%TO.N,/GPIO3*%
X154000000Y-116000000D02*
X154000000Y-87000000D01*
X154000000Y-87000000D02*
X156000000Y-87000000D01*
X150000000Y-120000000D02*
X154000000Y-116000000D01*
X156000000Y-87000000D02*
X156600250Y-87600250D01*
X143500000Y-120000000D02*
X150000000Y-120000000D01*
X156600250Y-87600250D02*
X190004500Y-87600250D01*
%TO.N,/GPIO4*%
X166000000Y-120500000D02*
X159500000Y-120500000D01*
X166000000Y-93000000D02*
X169000000Y-90000000D01*
X169140250Y-90140250D02*
X190004500Y-90140250D01*
X169000000Y-90000000D02*
X169140250Y-90140250D01*
X166000000Y-120500000D02*
X166000000Y-93000000D01*
%TO.N,/GPIO5*%
X186239750Y-97760250D02*
X190004500Y-97760250D01*
X183000000Y-120500000D02*
X183000000Y-101000000D01*
X183000000Y-101000000D02*
X186239750Y-97760250D01*
X183000000Y-120500000D02*
X176500000Y-120500000D01*
%TO.N,/GPIO6*%
X190004500Y-117254500D02*
X190004500Y-100300250D01*
X193500000Y-120750000D02*
X190004500Y-117254500D01*
X200000000Y-120750000D02*
X193500000Y-120750000D01*
%TD*%
M02*
