M48
; DRILL file KiCad 10.0.7 date 2026-10-10T12:26:03
; FORMAT={-:-/ absolute / metric / decimal}
; #@! TF.CreationDate,2026-10-10T12:26:03+01:00
; #@! TF.GenerationSoftware,Kicad,Pcbnew,10.0.7
; #@! TF.FileFunction,Plated,1,2,PTH
FMAT,2
METRIC
; #@! TA.AperFunction,Plated,PTH,ViaDrill
T1C0.300
; #@! TA.AperFunction,Plated,PTH,ComponentDrill
T2C1.000
; #@! TA.AperFunction,Plated,PTH,ComponentDrill
T3C1.100
%
G90
G05
T1
X176.0Y-87.0
X182.0Y-99.0
X183.0Y-91.0
X187.0Y-87.0
X187.0Y-92.0
X191.0Y-74.0
X203.0Y-88.0
X209.0Y-115.0
X217.0Y-88.0
T2
X158.38Y-81.0
X160.92Y-81.0
X163.46Y-81.0
X166.0Y-81.0
X217.0Y-76.0
X219.54Y-76.0
X222.08Y-76.0
X224.62Y-76.0
X225.0Y-108.3
X225.0Y-110.84
X225.0Y-113.38
X225.0Y-115.92
X225.0Y-118.46
X225.0Y-121.0
X225.0Y-123.54
X225.0Y-126.08
T3
X143.5Y-120.0
X143.5Y-124.5
X150.0Y-120.0
X150.0Y-124.5
X159.5Y-120.5
X159.5Y-125.0
X166.0Y-120.5
X166.0Y-125.0
X176.5Y-120.5
X176.5Y-125.0
X183.0Y-120.5
X183.0Y-125.0
X193.5Y-120.75
X193.5Y-125.25
X200.0Y-120.75
X200.0Y-125.25
M30
