%TF.GenerationSoftware,KiCad,Pcbnew,10.0.7*%
%TF.CreationDate,2026-10-10T12:25:37+01:00*%
%TF.ProjectId,AeroBot,4165726f-426f-4742-9e6b-696361645f70,rev?*%
%TF.SameCoordinates,Original*%
%TF.FileFunction,Copper,L2,Bot*%
%TF.FilePolarity,Positive*%
%FSLAX46Y46*%
G04 Gerber Fmt 4.6, Leading zero omitted, Abs format (unit mm)*
G04 Created by KiCad (PCBNEW 10.0.7) date 2026-10-10 12:25:37*
%MOMM*%
%LPD*%
G01*
G04 APERTURE LIST*
%TA.AperFunction,ComponentPad*%
%ADD10R,1.700000X1.700000*%
%TD*%
%TA.AperFunction,ComponentPad*%
%ADD11C,1.700000*%
%TD*%
%TA.AperFunction,ComponentPad*%
%ADD12C,2.000000*%
%TD*%
%TA.AperFunction,ViaPad*%
%ADD13C,0.600000*%
%TD*%
%TA.AperFunction,Conductor*%
%ADD14C,0.200000*%
%TD*%
%TA.AperFunction,Conductor*%
%ADD15C,0.500000*%
%TD*%
G04 APERTURE END LIST*
D10*
%TO.P,J3,1,Pin_1_1*%
%TO.N,+3.3V*%
X158380000Y-81000000D03*
D11*
%TO.P,J3,2,Pin_2_2*%
%TO.N,GND*%
X160920000Y-81000000D03*
%TO.P,J3,3,Pin_3_3*%
%TO.N,/SCL*%
X163460000Y-81000000D03*
%TO.P,J3,4,Pin_4_4*%
%TO.N,/SDA*%
X166000000Y-81000000D03*
%TD*%
D12*
%TO.P,SW4,1,1_1*%
%TO.N,/GPIO5*%
X176500000Y-120500000D03*
X183000000Y-120500000D03*
%TO.P,SW4,2,2_2*%
%TO.N,GND*%
X176500000Y-125000000D03*
X183000000Y-125000000D03*
%TD*%
%TO.P,SW2,1,1_1*%
%TO.N,/GPIO3*%
X143500000Y-120000000D03*
X150000000Y-120000000D03*
%TO.P,SW2,2,2_2*%
%TO.N,GND*%
X143500000Y-124500000D03*
X150000000Y-124500000D03*
%TD*%
%TO.P,SW5,1,1_1*%
%TO.N,/GPIO6*%
X193500000Y-120750000D03*
X200000000Y-120750000D03*
%TO.P,SW5,2,2_2*%
%TO.N,GND*%
X193500000Y-125250000D03*
X200000000Y-125250000D03*
%TD*%
D10*
%TO.P,J6,1,Pin_1_1*%
%TO.N,+3.3V*%
X225000000Y-108300000D03*
D11*
%TO.P,J6,2,Pin_2_2*%
%TO.N,GND*%
X225000000Y-110840000D03*
%TO.P,J6,3,Pin_3_3*%
%TO.N,/SCL*%
X225000000Y-113380000D03*
%TO.P,J6,4,Pin_4_4*%
%TO.N,/SDA*%
X225000000Y-115920000D03*
%TO.P,J6,5,Pin_5_5*%
%TO.N,unconnected-(J6-Pin_5-Pad5)*%
X225000000Y-118460000D03*
%TO.P,J6,6,Pin_6_6*%
%TO.N,unconnected-(J6-Pin_6-Pad6)*%
X225000000Y-121000000D03*
%TO.P,J6,7,Pin_7_7*%
%TO.N,unconnected-(J6-Pin_7-Pad7)*%
X225000000Y-123540000D03*
%TO.P,J6,8,Pin_8_8*%
%TO.N,unconnected-(J6-Pin_8-Pad8)*%
X225000000Y-126080000D03*
%TD*%
D12*
%TO.P,SW3,1,1_1*%
%TO.N,/GPIO4*%
X159500000Y-120500000D03*
X166000000Y-120500000D03*
%TO.P,SW3,2,2_2*%
%TO.N,GND*%
X159500000Y-125000000D03*
X166000000Y-125000000D03*
%TD*%
D10*
%TO.P,J4,1,Pin_1_1*%
%TO.N,+3.3V*%
X217000000Y-76000000D03*
D11*
%TO.P,J4,2,Pin_2_2*%
%TO.N,GND*%
X219540000Y-76000000D03*
%TO.P,J4,3,Pin_3_3*%
%TO.N,unconnected-(J4-Pin_3-Pad3)*%
X222080000Y-76000000D03*
%TO.P,J4,4,Pin_4_4*%
%TO.N,/MD DATA*%
X224620000Y-76000000D03*
%TD*%
D13*
%TO.N,/SDA*%
X209000000Y-115000000D03*
X187000000Y-92000000D03*
X187000000Y-87000000D03*
X182000000Y-99000000D03*
%TO.N,GND*%
X217000000Y-88000000D03*
X191000000Y-74000000D03*
%TO.N,/SCL*%
X176000000Y-87000000D03*
X183000000Y-91000000D03*
%TO.N,+3.3V*%
X203000000Y-88000000D03*
%TD*%
%TO.N,/SDA*%
D14*
X182000000Y-99000000D02*
X182000000Y-108000000D01*
X187000000Y-87000000D02*
X187000000Y-92000000D01*
X202000000Y-108000000D02*
X209000000Y-115000000D01*
X182000000Y-108000000D02*
X202000000Y-108000000D01*
%TO.N,GND*%
D15*
X217000000Y-78540000D02*
X219540000Y-76000000D01*
X160920000Y-74080000D02*
X160920000Y-81000000D01*
X217000000Y-88000000D02*
X217000000Y-78540000D01*
X217000000Y-102840000D02*
X225000000Y-110840000D01*
X161000000Y-74000000D02*
X160920000Y-74080000D01*
X217000000Y-88000000D02*
X217000000Y-102840000D01*
X191000000Y-74000000D02*
X161000000Y-74000000D01*
%TO.N,/SCL*%
D14*
X180000000Y-91000000D02*
X176000000Y-87000000D01*
X183000000Y-91000000D02*
X180000000Y-91000000D01*
%TO.N,+3.3V*%
D15*
X158380000Y-81000000D02*
X158380000Y-83380000D01*
X159000000Y-84000000D02*
X199000000Y-84000000D01*
X158380000Y-83380000D02*
X159000000Y-84000000D01*
X199000000Y-84000000D02*
X203000000Y-88000000D01*
%TD*%
M02*
